<mxfile host="65bd71144e">
    <diagram id="Omz8NuV_Lej0NusEcTPA" name="Page-1">
        <mxGraphModel dx="1074" dy="741" grid="1" gridSize="10" guides="1" tooltips="1" connect="1" arrows="1" fold="1" page="1" pageScale="1" pageWidth="827" pageHeight="1169" math="0" shadow="0">
            <root>
                <mxCell id="0"/>
                <mxCell id="1" parent="0"/>
                <mxCell id="237" style="shape=connector;rounded=1;html=1;exitX=1;exitY=0.5;exitDx=0;exitDy=0;entryX=1;entryY=0.115;entryDx=0;entryDy=0;entryPerimeter=0;labelBackgroundColor=default;fontFamily=Helvetica;fontSize=11;fontColor=default;endArrow=none;endFill=0;strokeColor=#CC0000;" parent="1" source="2" target="12" edge="1">
                    <mxGeometry relative="1" as="geometry">
                        <Array as="points">
                            <mxPoint x="650" y="177"/>
                        </Array>
                    </mxGeometry>
                </mxCell>
                <mxCell id="2" value="" style="pointerEvents=1;verticalLabelPosition=bottom;shadow=0;dashed=0;align=center;html=1;verticalAlign=top;shape=mxgraph.electrical.miscellaneous.batteryStack;direction=north;" parent="1" vertex="1">
                    <mxGeometry x="620" y="200" width="60" height="100" as="geometry"/>
                </mxCell>
                <mxCell id="192" style="edgeStyle=none;html=1;exitX=0;exitY=0.5;exitDx=0;exitDy=0;exitPerimeter=0;entryX=0;entryY=0.57;entryDx=0;entryDy=0;entryPerimeter=0;endArrow=none;endFill=0;" parent="1" source="3" target="4" edge="1">
                    <mxGeometry relative="1" as="geometry"/>
                </mxCell>
                <mxCell id="3" value="" style="pointerEvents=1;verticalLabelPosition=bottom;shadow=0;dashed=0;align=center;html=1;verticalAlign=top;shape=mxgraph.electrical.resistors.resistor_2;direction=west;" parent="1" vertex="1">
                    <mxGeometry x="244" y="615" width="96" height="20" as="geometry"/>
                </mxCell>
                <mxCell id="4" value="" style="verticalLabelPosition=bottom;shadow=0;dashed=0;align=center;html=1;verticalAlign=top;shape=mxgraph.electrical.opto_electronics.led_2;pointerEvents=1;direction=east;flipV=0;flipH=0;" parent="1" vertex="1">
                    <mxGeometry x="420" y="585" width="100" height="70" as="geometry"/>
                </mxCell>
                <mxCell id="8" value="5 V" style="text;html=1;align=center;verticalAlign=middle;resizable=0;points=[];autosize=1;strokeColor=none;fillColor=none;fontSize=11;fontFamily=Helvetica;fontColor=default;" parent="1" vertex="1">
                    <mxGeometry x="680" y="250" width="30" height="20" as="geometry"/>
                </mxCell>
                <mxCell id="9" value="220&amp;nbsp;&amp;nbsp;Î©" style="text;html=1;align=center;verticalAlign=middle;resizable=0;points=[];autosize=1;strokeColor=none;fillColor=none;fontSize=11;fontFamily=Helvetica;fontColor=default;" parent="1" vertex="1">
                    <mxGeometry x="267" y="585" width="50" height="20" as="geometry"/>
                </mxCell>
                <mxCell id="10" value="Output" style="text;html=1;align=center;verticalAlign=middle;resizable=0;points=[];autosize=1;strokeColor=none;fillColor=none;fontSize=11;fontFamily=Helvetica;fontColor=default;" parent="1" vertex="1">
                    <mxGeometry x="420" y="550" width="50" height="20" as="geometry"/>
                </mxCell>
                <mxCell id="11" value="&lt;font&gt;&lt;span style=&quot;font-size: 14px&quot;&gt;Nina Mathew&lt;/span&gt;&lt;br&gt;&lt;span style=&quot;font-size: 14px&quot;&gt;TEJ3M Unit #4-18&lt;/span&gt;&lt;br&gt;&lt;div&gt;&lt;span style=&quot;font-size: 14px&quot;&gt;Full Adder circuit with an IC chip&lt;/span&gt;&lt;/div&gt;&lt;div style=&quot;font-size: 14px&quot;&gt;&lt;br&gt;&lt;/div&gt;&lt;/font&gt;" style="text;html=1;align=center;verticalAlign=middle;resizable=0;points=[];autosize=1;strokeColor=none;fillColor=none;fontSize=11;fontFamily=Helvetica;fontColor=default;" parent="1" vertex="1">
                    <mxGeometry x="122" y="70" width="220" height="60" as="geometry"/>
                </mxCell>
                <mxCell id="181" style="edgeStyle=none;shape=connector;rounded=1;html=1;exitX=1;exitY=0.885;exitDx=0;exitDy=0;exitPerimeter=0;entryX=1;entryY=0.885;entryDx=0;entryDy=0;entryPerimeter=0;labelBackgroundColor=default;fontFamily=Helvetica;fontSize=11;fontColor=default;endArrow=none;endFill=0;strokeColor=#000000;" parent="1" source="12" target="134" edge="1">
                    <mxGeometry relative="1" as="geometry">
                        <Array as="points">
                            <mxPoint x="610" y="240"/>
                            <mxPoint x="610" y="297"/>
                        </Array>
                    </mxGeometry>
                </mxCell>
                <mxCell id="267" style="edgeStyle=none;shape=connector;rounded=1;html=1;exitX=0;exitY=0.885;exitDx=0;exitDy=0;exitPerimeter=0;entryX=0;entryY=0.75;entryDx=0;entryDy=0;entryPerimeter=0;labelBackgroundColor=default;fontFamily=Helvetica;fontSize=11;fontColor=default;endArrow=none;endFill=0;strokeColor=#330066;" edge="1" parent="1" source="12" target="246">
                    <mxGeometry relative="1" as="geometry">
                        <Array as="points">
                            <mxPoint x="460" y="187"/>
                        </Array>
                    </mxGeometry>
                </mxCell>
                <mxCell id="12" value="" style="pointerEvents=1;verticalLabelPosition=bottom;shadow=0;dashed=0;align=center;html=1;verticalAlign=top;shape=mxgraph.electrical.electro-mechanical.2-way_switch;direction=east;" parent="1" vertex="1">
                    <mxGeometry x="507.5" y="174" width="75" height="26" as="geometry"/>
                </mxCell>
                <mxCell id="13" value="+" style="text;html=1;align=center;verticalAlign=middle;resizable=0;points=[];autosize=1;strokeColor=none;fillColor=none;" parent="1" vertex="1">
                    <mxGeometry x="660" y="190" width="20" height="20" as="geometry"/>
                </mxCell>
                <mxCell id="14" value="-" style="text;html=1;align=center;verticalAlign=middle;resizable=0;points=[];autosize=1;strokeColor=none;fillColor=none;" parent="1" vertex="1">
                    <mxGeometry x="660" y="290" width="20" height="20" as="geometry"/>
                </mxCell>
                <mxCell id="43" value="Input A" style="text;html=1;align=center;verticalAlign=middle;resizable=0;points=[];autosize=1;strokeColor=none;fillColor=none;fontSize=11;fontFamily=Helvetica;fontColor=default;" parent="1" vertex="1">
                    <mxGeometry x="510" y="150" width="50" height="20" as="geometry"/>
                </mxCell>
                <mxCell id="240" style="edgeStyle=none;shape=connector;rounded=1;html=1;exitX=1;exitY=0.115;exitDx=0;exitDy=0;exitPerimeter=0;labelBackgroundColor=default;fontFamily=Helvetica;fontSize=11;fontColor=default;endArrow=none;endFill=0;strokeColor=#CC0000;entryX=1;entryY=0.115;entryDx=0;entryDy=0;entryPerimeter=0;" parent="1" source="134" target="12" edge="1">
                    <mxGeometry relative="1" as="geometry">
                        <mxPoint x="595" y="180" as="targetPoint"/>
                    </mxGeometry>
                </mxCell>
                <mxCell id="268" style="edgeStyle=none;shape=connector;rounded=1;html=1;exitX=0;exitY=0.885;exitDx=0;exitDy=0;exitPerimeter=0;entryX=0;entryY=0.25;entryDx=0;entryDy=0;entryPerimeter=0;labelBackgroundColor=default;fontFamily=Helvetica;fontSize=11;fontColor=default;endArrow=none;endFill=0;strokeColor=#0000CC;" edge="1" parent="1" source="134" target="258">
                    <mxGeometry relative="1" as="geometry">
                        <Array as="points">
                            <mxPoint x="430" y="297"/>
                            <mxPoint x="430" y="360"/>
                            <mxPoint x="430" y="425"/>
                        </Array>
                    </mxGeometry>
                </mxCell>
                <mxCell id="134" value="" style="pointerEvents=1;verticalLabelPosition=bottom;shadow=0;dashed=0;align=center;html=1;verticalAlign=top;shape=mxgraph.electrical.electro-mechanical.2-way_switch;direction=east;" parent="1" vertex="1">
                    <mxGeometry x="507.5" y="274" width="75" height="26" as="geometry"/>
                </mxCell>
                <mxCell id="177" value="Input B" style="text;html=1;align=center;verticalAlign=middle;resizable=0;points=[];autosize=1;strokeColor=none;fillColor=none;fontSize=11;fontFamily=Helvetica;fontColor=default;" parent="1" vertex="1">
                    <mxGeometry x="520" y="240" width="50" height="20" as="geometry"/>
                </mxCell>
                <mxCell id="269" style="edgeStyle=none;shape=connector;rounded=1;html=1;exitX=0;exitY=0.25;exitDx=0;exitDy=0;exitPerimeter=0;labelBackgroundColor=default;fontFamily=Helvetica;fontSize=11;fontColor=default;endArrow=none;endFill=0;strokeColor=#0000CC;" edge="1" parent="1" source="246">
                    <mxGeometry relative="1" as="geometry">
                        <mxPoint x="450" y="297" as="targetPoint"/>
                        <mxPoint x="420" y="199" as="sourcePoint"/>
                        <Array as="points">
                            <mxPoint x="450" y="215"/>
                        </Array>
                    </mxGeometry>
                </mxCell>
                <mxCell id="272" style="edgeStyle=none;shape=connector;rounded=1;html=1;exitX=1;exitY=0.5;exitDx=0;exitDy=0;exitPerimeter=0;labelBackgroundColor=default;fontFamily=Helvetica;fontSize=11;fontColor=default;endArrow=none;endFill=0;strokeColor=#006600;entryX=0;entryY=0.75;entryDx=0;entryDy=0;entryPerimeter=0;" edge="1" parent="1" source="246" target="259">
                    <mxGeometry relative="1" as="geometry">
                        <mxPoint x="230" y="210" as="targetPoint"/>
                    </mxGeometry>
                </mxCell>
                <mxCell id="246" value="" style="verticalLabelPosition=bottom;shadow=0;dashed=0;align=center;html=1;verticalAlign=top;shape=mxgraph.electrical.logic_gates.logic_gate;operation=xor;direction=west;" parent="1" vertex="1">
                    <mxGeometry x="314" y="170" width="100" height="60" as="geometry"/>
                </mxCell>
                <mxCell id="274" style="edgeStyle=none;shape=connector;rounded=1;html=1;exitX=0;exitY=0.75;exitDx=0;exitDy=0;exitPerimeter=0;labelBackgroundColor=default;fontFamily=Helvetica;fontSize=11;fontColor=default;endArrow=none;endFill=0;strokeColor=#006600;" edge="1" parent="1" source="247">
                    <mxGeometry relative="1" as="geometry">
                        <mxPoint x="282" y="198" as="targetPoint"/>
                        <mxPoint x="282" y="303" as="sourcePoint"/>
                    </mxGeometry>
                </mxCell>
                <mxCell id="247" value="" style="verticalLabelPosition=bottom;shadow=0;dashed=0;align=center;html=1;verticalAlign=top;shape=mxgraph.electrical.logic_gates.logic_gate;operation=and;direction=west;" parent="1" vertex="1">
                    <mxGeometry x="182" y="290" width="100" height="60" as="geometry"/>
                </mxCell>
                <mxCell id="262" style="edgeStyle=none;shape=connector;rounded=1;html=1;exitX=1;exitY=0.885;exitDx=0;exitDy=0;exitPerimeter=0;entryX=1;entryY=0.885;entryDx=0;entryDy=0;entryPerimeter=0;labelBackgroundColor=default;fontFamily=Helvetica;fontSize=11;fontColor=default;endArrow=none;endFill=0;strokeColor=default;" edge="1" parent="1" source="256" target="134">
                    <mxGeometry relative="1" as="geometry"/>
                </mxCell>
                <mxCell id="263" style="edgeStyle=none;shape=connector;rounded=1;html=1;labelBackgroundColor=default;fontFamily=Helvetica;fontSize=11;fontColor=default;endArrow=none;endFill=0;strokeColor=#CC0000;exitX=1;exitY=0.115;exitDx=0;exitDy=0;exitPerimeter=0;" edge="1" parent="1" source="256">
                    <mxGeometry relative="1" as="geometry">
                        <mxPoint x="600" y="177" as="targetPoint"/>
                        <mxPoint x="600" y="390" as="sourcePoint"/>
                        <Array as="points">
                            <mxPoint x="600" y="380"/>
                            <mxPoint x="600" y="257"/>
                        </Array>
                    </mxGeometry>
                </mxCell>
                <mxCell id="271" style="edgeStyle=none;shape=connector;rounded=1;html=1;exitX=0;exitY=0.885;exitDx=0;exitDy=0;exitPerimeter=0;entryX=0;entryY=0.25;entryDx=0;entryDy=0;entryPerimeter=0;labelBackgroundColor=default;fontFamily=Helvetica;fontSize=11;fontColor=default;endArrow=none;endFill=0;strokeColor=#CC6600;" edge="1" parent="1" source="256" target="247">
                    <mxGeometry relative="1" as="geometry">
                        <Array as="points">
                            <mxPoint x="460" y="403"/>
                            <mxPoint x="390" y="335"/>
                            <mxPoint x="350" y="335"/>
                            <mxPoint x="330" y="335"/>
                            <mxPoint x="300" y="335"/>
                        </Array>
                    </mxGeometry>
                </mxCell>
                <mxCell id="256" value="" style="pointerEvents=1;verticalLabelPosition=bottom;shadow=0;dashed=0;align=center;html=1;verticalAlign=top;shape=mxgraph.electrical.electro-mechanical.2-way_switch;direction=east;" vertex="1" parent="1">
                    <mxGeometry x="507.5" y="380" width="75" height="26" as="geometry"/>
                </mxCell>
                <mxCell id="257" value="Input C" style="text;html=1;align=center;verticalAlign=middle;resizable=0;points=[];autosize=1;strokeColor=none;fillColor=none;fontSize=11;fontFamily=Helvetica;fontColor=default;" vertex="1" parent="1">
                    <mxGeometry x="520" y="330" width="50" height="20" as="geometry"/>
                </mxCell>
                <mxCell id="270" style="edgeStyle=none;shape=connector;rounded=1;html=1;labelBackgroundColor=default;fontFamily=Helvetica;fontSize=11;fontColor=default;endArrow=none;endFill=0;strokeColor=#330066;exitX=0;exitY=0.75;exitDx=0;exitDy=0;exitPerimeter=0;" edge="1" parent="1" source="258">
                    <mxGeometry relative="1" as="geometry">
                        <mxPoint x="460" y="188" as="targetPoint"/>
                        <mxPoint x="450" y="402" as="sourcePoint"/>
                        <Array as="points">
                            <mxPoint x="460" y="395"/>
                        </Array>
                    </mxGeometry>
                </mxCell>
                <mxCell id="258" value="" style="verticalLabelPosition=bottom;shadow=0;dashed=0;align=center;html=1;verticalAlign=top;shape=mxgraph.electrical.logic_gates.logic_gate;operation=and;direction=west;" vertex="1" parent="1">
                    <mxGeometry x="290" y="380" width="100" height="60" as="geometry"/>
                </mxCell>
                <mxCell id="273" style="edgeStyle=none;shape=connector;rounded=1;html=1;exitX=0;exitY=0.25;exitDx=0;exitDy=0;exitPerimeter=0;labelBackgroundColor=default;fontFamily=Helvetica;fontSize=11;fontColor=default;endArrow=none;endFill=0;strokeColor=#CC6600;" edge="1" parent="1" source="259">
                    <mxGeometry relative="1" as="geometry">
                        <mxPoint x="310" y="334" as="targetPoint"/>
                        <mxPoint x="230" y="219" as="sourcePoint"/>
                        <Array as="points">
                            <mxPoint x="310" y="225"/>
                        </Array>
                    </mxGeometry>
                </mxCell>
                <mxCell id="259" value="" style="verticalLabelPosition=bottom;shadow=0;dashed=0;align=center;html=1;verticalAlign=top;shape=mxgraph.electrical.logic_gates.logic_gate;operation=xor;direction=west;" vertex="1" parent="1">
                    <mxGeometry x="144" y="180" width="100" height="60" as="geometry"/>
                </mxCell>
                <mxCell id="260" value="" style="verticalLabelPosition=bottom;shadow=0;dashed=0;align=center;html=1;verticalAlign=top;shape=mxgraph.electrical.logic_gates.logic_gate;operation=or;direction=west;" vertex="1" parent="1">
                    <mxGeometry x="40" y="363" width="100" height="60" as="geometry"/>
                </mxCell>
            </root>
        </mxGraphModel>
    </diagram>
</mxfile>